<svg xmlns="http://www.w3.org/2000/svg" width="60" height="69.618" viewBox="0 0 60 69.618">
  <g id="Logo" transform="translate(-406.56 -274.001)">
    <path id="Path_76" data-name="Path 76" d="M448.221,321.41a1.586,1.586,0,0,1,0,2.7l-9.084,5.614-8.846,5.467a1.586,1.586,0,0,1-2.42-1.348V311.677a1.586,1.586,0,0,1,2.42-1.348l8.846,5.467Z" transform="translate(-6.062 -10.406)" fill="#fff"/>
    <path id="Path_77" data-name="Path 77" d="M464.515,316.983,426.354,343.3a1.788,1.788,0,0,1-2.8-1.472v-6.316a2.659,2.659,0,0,1,1.148-2.188l26.014-17.947a2.657,2.657,0,0,0,0-4.375l-30.446-21a2.657,2.657,0,0,0-4.166,2.187v32.426a2.657,2.657,0,0,1-2.658,2.657h-4.226a2.657,2.657,0,0,1-2.657-2.657v-45.9c0-3.856,4.659-6.075,7.967-3.793L464.515,309.4A4.539,4.539,0,0,1,464.515,316.983Z" transform="translate(0)" fill="#fd4427"/>
    <rect id="Rectangle_58" data-name="Rectangle 58" width="6.44" height="1.625" rx="0.812" transform="translate(409.373 328.927)" fill="#fff"/>
    <rect id="Rectangle_59" data-name="Rectangle 59" width="12.003" height="1.625" rx="0.812" transform="translate(406.591 332.301)" fill="#fff"/>
    <rect id="Rectangle_60" data-name="Rectangle 60" width="8.565" height="1.625" rx="0.812" transform="translate(408.31 335.502)" fill="#fff" opacity="0.9"/>
    <rect id="Rectangle_61" data-name="Rectangle 61" width="10.19" height="1.625" rx="0.812" transform="translate(407.498 338.901)" fill="#fff" opacity="0.8"/>
    <path id="Path_121" data-name="Path 121" d="M.812,0H5.627A.812.812,0,0,1,6.44.812h0a.812.812,0,0,1-.812.812H.812A.812.812,0,0,1,0,.813H0A.812.812,0,0,1,.812,0Z" transform="translate(409.373 341.994)" fill="#fff" opacity="0.5"/>
  </g>
</svg>
