<svg xmlns="http://www.w3.org/2000/svg" width="60" height="69.618" viewBox="0 0 60 69.618">
  <g id="Logo" transform="translate(-406.56 -274.001)">
    <path id="Path_76" data-name="Path 76" d="M445.229,319.746a1.353,1.353,0,0,1,0,2.3l-7.749,4.789-7.546,4.663a1.353,1.353,0,0,1-2.064-1.15V311.444a1.353,1.353,0,0,1,2.064-1.15l7.546,4.663Z" transform="translate(-5.129 -7.137)" fill="#fff"/>
    <path id="Path_77" data-name="Path 77" d="M464.515,316.983,426.354,343.3a1.788,1.788,0,0,1-2.8-1.472v-6.316a2.659,2.659,0,0,1,1.148-2.188l26.014-17.947a2.657,2.657,0,0,0,0-4.375l-30.446-21a2.657,2.657,0,0,0-4.166,2.187v32.426a2.657,2.657,0,0,1-2.658,2.657h-4.226a2.657,2.657,0,0,1-2.657-2.657v-45.9c0-3.856,4.659-6.075,7.967-3.793L464.515,309.4A4.539,4.539,0,0,1,464.515,316.983Z" fill="#d63346"/>
    <rect id="Rectangle_58" data-name="Rectangle 58" width="5.548" height="1.4" rx="0.7" transform="translate(408.991 328.889)" fill="#fff"/>
    <rect id="Rectangle_59" data-name="Rectangle 59" width="10.34" height="1.4" rx="0.7" transform="translate(406.591 334.005)" fill="#fff"/>
    <rect id="Rectangle_60" data-name="Rectangle 60" width="7.12" height="1.328" rx="0.664" transform="translate(408.036 336.605)" fill="#fff" opacity="0.9"/>
    <rect id="Rectangle_61" data-name="Rectangle 61" width="8.46" height="1.4" rx="0.7" transform="translate(407.596 339.404)" fill="#fff" opacity="0.8"/>
    <path id="Path_121" data-name="Path 121" d="M.7,0H4.85a.7.7,0,0,1,.7.7h0a.7.7,0,0,1-.7.7H.7A.7.7,0,0,1,0,.7H0A.7.7,0,0,1,.7,0Z" transform="translate(408.996 341.994)" fill="#fff" opacity="0.5"/>
  </g>
</svg>
