<svg xmlns="http://www.w3.org/2000/svg" width="20" height="20" viewBox="0 0 20 20">
  <path id="Icon_ionic-ios-close-circle" data-name="Icon ionic-ios-close-circle" d="M11.875,1.875a10,10,0,1,0,10,10A10,10,0,0,0,11.875,1.875ZM14.409,15.5l-2.534-2.534L9.341,15.5a.768.768,0,1,1-1.087-1.087l2.534-2.534L8.255,9.341A.768.768,0,0,1,9.341,8.255l2.534,2.534,2.534-2.534A.768.768,0,0,1,15.5,9.341l-2.534,2.534L15.5,14.409a.772.772,0,0,1,0,1.087A.763.763,0,0,1,14.409,15.5Z" transform="translate(-1.875 -1.875)" fill="#868686"/>
</svg>
