<svg xmlns="http://www.w3.org/2000/svg" width="21.38" height="24.435" viewBox="0 0 21.38 24.435">
  <path id="Icon_awesome-trash-alt" data-name="Icon awesome-trash-alt" d="M1.527,22.144a2.291,2.291,0,0,0,2.291,2.291H17.562a2.291,2.291,0,0,0,2.291-2.291V6.109H1.527ZM14.508,9.926a.764.764,0,1,1,1.527,0v10.69a.764.764,0,1,1-1.527,0Zm-4.581,0a.764.764,0,1,1,1.527,0v10.69a.764.764,0,1,1-1.527,0Zm-4.581,0a.764.764,0,1,1,1.527,0v10.69a.764.764,0,1,1-1.527,0Zm15.271-8.4H14.89L14.441.635A1.145,1.145,0,0,0,13.415,0H7.96A1.132,1.132,0,0,0,6.939.635l-.449.892H.764A.764.764,0,0,0,0,2.291V3.818a.764.764,0,0,0,.764.764H20.616a.764.764,0,0,0,.764-.764V2.291A.764.764,0,0,0,20.616,1.527Z" fill="#fff"/>
</svg>
