<svg id="Group_87" data-name="Group 87" xmlns="http://www.w3.org/2000/svg" width="14" height="25.525" viewBox="0 0 14 25.525">
  <path id="Path_167" data-name="Path 167" d="M125.027,0H116.4a2.71,2.71,0,0,0-2.712,2.661V22.867a2.684,2.684,0,0,0,2.685,2.658l8.637-.009a2.667,2.667,0,0,0,2.665-2.658l.013-20.2A2.661,2.661,0,0,0,125.027,0Zm-5.557,1.6h2.5a.4.4,0,1,1,0,.8h-2.5a.4.4,0,1,1,0-.8Zm-1.5.127a.413.413,0,0,1,.564,0,.4.4,0,1,1-.564,0Zm2.674,23.012a1.194,1.194,0,1,1,1.193-1.194A1.195,1.195,0,0,1,120.64,24.734Zm5.814-3.2H115.088V3.789h11.366Z" transform="translate(-113.692)" fill="#868686"/>
</svg>
