<svg xmlns="http://www.w3.org/2000/svg" width="20.885" height="23.797" viewBox="0 0 20.885 23.797"><g transform="translate(4.931)"><path d="M139.925,9.388a.763.763,0,0,0-.682-.377h-3V.644a.7.7,0,0,0-.75-.644h-3a.7.7,0,0,0-.75.644V9.011h-3a.766.766,0,0,0-.682.377.573.573,0,0,0,.118.69l5.247,5.149a.832.832,0,0,0,1.127,0l5.247-5.149A.572.572,0,0,0,139.925,9.388Z" transform="translate(-127.998)" fill="#fff"/></g><g transform="matrix(1, -0.017, 0.017, 1, 0, 13.221)"><path d="M17.943,0V6.347H2.76V0H0V8.462c0,1.17.618,2.116,1.38,2.116H19.323c.763,0,1.38-.946,1.38-2.116V0Z" fill="#fff"/></g></svg>