<svg xmlns="http://www.w3.org/2000/svg" width="21.38" height="19.001" viewBox="0 0 21.38 19.001">
  <path id="Icon_awesome-edit" data-name="Icon awesome-edit" d="M14.944,3.089l3.348,3.348a.363.363,0,0,1,0,.512l-8.107,8.107-3.445.382a.722.722,0,0,1-.8-.8L6.325,11.2l8.107-8.107A.363.363,0,0,1,14.944,3.089Zm6.013-.85L19.145.428a1.452,1.452,0,0,0-2.049,0L15.783,1.742a.363.363,0,0,0,0,.512L19.131,5.6a.363.363,0,0,0,.512,0l1.314-1.314A1.452,1.452,0,0,0,20.957,2.239Zm-6.7,10.612V16.63H2.376V4.752h8.53a.456.456,0,0,0,.316-.13l1.485-1.485a.445.445,0,0,0-.316-.761H1.782A1.782,1.782,0,0,0,0,4.158V17.224a1.782,1.782,0,0,0,1.782,1.782H14.847a1.782,1.782,0,0,0,1.782-1.782V11.367a.446.446,0,0,0-.761-.316l-1.485,1.485A.456.456,0,0,0,14.253,12.851Z" transform="translate(0 -0.005)" fill="#fff"/>
</svg>
