<svg xmlns="http://www.w3.org/2000/svg" width="27.995" height="25" viewBox="0 0 27.995 25"><path d="M25.706,19.246a7.863,7.863,0,0,0-11.212,0l-.494.5-.494-.5a7.875,7.875,0,0,0-10.818-.382q-.206.184-.4.382a8.017,8.017,0,0,0,0,11.219L13.273,41.6a1.029,1.029,0,0,0,1.414.037l.038-.037,10.98-11.132A8.016,8.016,0,0,0,25.706,19.246ZM24.258,29.14h0L14,39.537,3.741,29.14a6.126,6.126,0,0,1,0-8.572,5.818,5.818,0,0,1,7.991-.309q.167.148.321.309l1.22,1.237a1.06,1.06,0,0,0,1.453,0l1.22-1.236a5.818,5.818,0,0,1,7.991-.309q.167.148.321.309A6.071,6.071,0,0,1,24.258,29.14Z" transform="translate(0 -16.896)" fill="#fff"/></svg>