<svg xmlns="http://www.w3.org/2000/svg" width="16.667" height="16.667" viewBox="0 0 16.667 16.667">
  <path id="Icon_material-language" data-name="Icon material-language" d="M9.992,1.667A8.333,8.333,0,1,0,18.333,10,8.329,8.329,0,0,0,9.992,1.667Zm5.775,5H13.308A13.041,13.041,0,0,0,12.158,3.7a6.691,6.691,0,0,1,3.608,2.967ZM10,3.367a11.739,11.739,0,0,1,1.592,3.3H8.408A11.739,11.739,0,0,1,10,3.367Zm-6.45,8.3a6.519,6.519,0,0,1,0-3.333H6.367A13.763,13.763,0,0,0,6.25,10a13.763,13.763,0,0,0,.117,1.667Zm.683,1.667H6.692A13.041,13.041,0,0,0,7.842,16.3a6.656,6.656,0,0,1-3.608-2.967ZM6.692,6.667H4.233A6.656,6.656,0,0,1,7.842,3.7a13.041,13.041,0,0,0-1.15,2.967ZM10,16.633a11.739,11.739,0,0,1-1.592-3.3h3.183A11.739,11.739,0,0,1,10,16.633Zm1.95-4.967H8.05A12.261,12.261,0,0,1,7.917,10,12.154,12.154,0,0,1,8.05,8.333h3.9A12.154,12.154,0,0,1,12.083,10a12.261,12.261,0,0,1-.133,1.667Zm.208,4.633a13.041,13.041,0,0,0,1.15-2.967h2.458A6.691,6.691,0,0,1,12.158,16.3Zm1.475-4.633A13.763,13.763,0,0,0,13.75,10a13.763,13.763,0,0,0-.117-1.667H16.45a6.519,6.519,0,0,1,0,3.333H13.633Z" transform="translate(-1.667 -1.667)" fill="#fff"/>
</svg>
