<svg xmlns="http://www.w3.org/2000/svg" width="25.118" height="25.713" viewBox="0 0 25.118 25.713"><path d="M28.806,149.333H11.075c-2.229,0-3.956,1.5-3.66,3.184l1.457,8.32c.244,1.391,1.817,2.44,3.66,2.44H27.35c1.843,0,3.417-1.049,3.66-2.44l1.457-8.32C32.762,150.831,31.037,149.333,28.806,149.333Zm1.554,2.97-1.457,8.32a1.493,1.493,0,0,1-1.554,1.036H12.532a1.493,1.493,0,0,1-1.554-1.036L9.521,152.3c-.124-.71.6-1.352,1.554-1.352H28.806C29.75,150.951,30.487,151.581,30.361,152.3Z" transform="translate(-7.382 -137.564)" fill="#fff"/><path d="M65.132,77.424h18.4a1.405,1.405,0,0,0,0-2.757h-18.4a1.405,1.405,0,0,0,0,2.757Z" transform="translate(-61.551 -68.771)" fill="#fff"/><path d="M97,2.567h13.23a1.169,1.169,0,0,0,1-1.284,1.169,1.169,0,0,0-1-1.284H97a1.169,1.169,0,0,0-1,1.284A1.169,1.169,0,0,0,97,2.567Z" transform="translate(-91.401)" fill="#fff"/><path d="M174.254,235.733l-5.076-1.016c-1.1-.221-2.41.1-2.41.6v2.042h-1.718c-2.784,0-5.049.907-5.049,2.021s2.265,2.021,5.049,2.021,5.049-.907,5.049-2.021v-2.985l2.665.533a3.178,3.178,0,0,0,2.235-.3C175.41,236.3,175.077,235.9,174.254,235.733Zm-7.486,3.644c0,.379-.771.688-1.718.688s-1.718-.309-1.718-.688.771-.688,1.718-.688h1.718v.688Z" transform="translate(-154.522 -219.812)" fill="#fff"/></svg>