<svg xmlns="http://www.w3.org/2000/svg" width="17.5" height="20" viewBox="0 0 17.5 20"><path d="M24.188,8.381,14.218.729a2.058,2.058,0,0,0-1.2-.481c-.8,0-1.332.75-1.332,1.956V18.293a2.587,2.587,0,0,0,.381,1.424,1.163,1.163,0,0,0,.983.531,2.016,2.016,0,0,0,1.183-.481l9.961-7.652a2.35,2.35,0,0,0,.991-1.867A2.355,2.355,0,0,0,24.188,8.381Z" transform="translate(-11.686 -0.248)" fill="#d63346"/><g transform="translate(14.5 0.929)"><path d="M456.446,493.672l-.293,0c-.048,0-.1,0-.143,0Z" transform="translate(-454.457 -474.725)" fill="#d63346"/><path d="M418.354,0h-.519a1.184,1.184,0,0,0-1.269,1.036V17.9a1.178,1.178,0,0,0,1.26,1.041l.552.006a1.118,1.118,0,0,0,1.188-1.046V1.036A1.128,1.128,0,0,0,418.354,0Z" transform="translate(-416.566)" fill="#d63346"/></g></svg>