<svg xmlns="http://www.w3.org/2000/svg" width="19.577" height="22.352" viewBox="0 0 19.577 22.352"><g transform="translate(0 0.071)"><path d="M26.036,9.309,14.593.784A2.4,2.4,0,0,0,13.215.248c-.919,0-1.529.835-1.529,2.179V20.35a2.819,2.819,0,0,0,.438,1.587,1.346,1.346,0,0,0,1.129.592,2.354,2.354,0,0,0,1.358-.536l11.433-8.524a2.6,2.6,0,0,0,1.138-2.08A2.6,2.6,0,0,0,26.036,9.309Z" transform="translate(-11.686 -0.248)" fill="#fff"/></g><g transform="translate(15.577)"><path d="M456.446,493.672l-.293,0c-.048,0-.1,0-.143,0Z" transform="translate(-453.851 -471.32)" fill="#fff"/><path d="M418.951,0h-.693c-.907,0-1.692.548-1.692,1.222v19.89c0,.674.772,1.228,1.68,1.228l.736.007a1.433,1.433,0,0,0,1.584-1.234V1.222C420.566.548,419.858,0,418.951,0Z" transform="translate(-416.566)" fill="#fff"/></g></svg>