<svg xmlns="http://www.w3.org/2000/svg" width="75" height="75.001" viewBox="0 0 75 75.001">
  <path id="Icon_awesome-music" data-name="Icon awesome-music" d="M75,4.689A4.684,4.684,0,0,0,68.9.22L22.031,14.063A4.686,4.686,0,0,0,18.75,18.53V56.824a20.264,20.264,0,0,0-4.687-.574C6.3,56.25,0,60.447,0,65.625S6.3,75,14.063,75s14.063-4.2,14.063-9.375V31.393L65.625,20.4V47.449a20.264,20.264,0,0,0-4.687-.574c-7.767,0-14.062,4.2-14.062,9.375s6.3,9.375,14.063,9.375S75,61.428,75,56.25Z" transform="translate(0 0.001)" fill="#868686"/>
</svg>
