<svg xmlns="http://www.w3.org/2000/svg" width="15.62" height="19.536" viewBox="0 0 15.62 19.536">
  <g id="Icon_ionic-ios-notifications" data-name="Icon ionic-ios-notifications" transform="translate(-4.695 -2.729)">
    <path id="Path_108" data-name="Path 108" d="M12.5,22.266a2.3,2.3,0,0,0,2.349-2.588h-4.7A2.3,2.3,0,0,0,12.5,22.266Z" fill="#fff"/>
    <path id="Path_109" data-name="Path 109" d="M20.117,17.2c-.752-.991-2.231-1.572-2.231-6.011C17.886,6.631,15.874,4.8,14,4.36c-.176-.044-.3-.1-.3-.288V3.931a1.191,1.191,0,1,0-2.383,0v.142c0,.181-.127.244-.3.288-1.88.444-3.887,2.271-3.887,6.826,0,4.438-1.479,5.015-2.231,6.011a.969.969,0,0,0,.776,1.553H19.346A.969.969,0,0,0,20.117,17.2Z" fill="#fff"/>
  </g>
</svg>
