<svg xmlns="http://www.w3.org/2000/svg" width="26.046" height="25.448" viewBox="0 0 26.046 25.448"><path d="M8.988,4.481,7.2,2.688A13.07,13.07,0,0,0,2.03,12.53H4.538A10.589,10.589,0,0,1,8.988,4.481ZM24.522,12.53H27.03a13.15,13.15,0,0,0-5.165-9.842l-1.78,1.793A10.651,10.651,0,0,1,24.522,12.53Zm-2.47.627c0-3.849-2.056-7.071-5.642-7.924V4.381a1.881,1.881,0,0,0-3.761,0v.853c-3.6.853-5.642,4.062-5.642,7.924v6.269L4.5,21.933v1.254H24.56V21.933l-2.508-2.508ZM14.53,26.948a2.2,2.2,0,0,0,.5-.05,2.544,2.544,0,0,0,1.805-1.479,2.517,2.517,0,0,0,.188-.978H12.01a2.526,2.526,0,0,0,2.52,2.508Z" transform="translate(-1.508 -2)" fill="none" stroke="#d63346" stroke-width="1"/></svg>