<svg xmlns="http://www.w3.org/2000/svg" width="19.577" height="22.352" viewBox="0 0 19.577 22.352"><g transform="translate(19.577 22.352) rotate(180)"><g transform="translate(0 0.071)"><path d="M14.35,9.061,2.907.536A2.4,2.4,0,0,0,1.529,0C.609,0,0,.835,0,2.179V20.1a2.819,2.819,0,0,0,.438,1.587,1.346,1.346,0,0,0,1.129.592,2.354,2.354,0,0,0,1.358-.536L14.357,13.22A2.6,2.6,0,0,0,15.5,11.14,2.6,2.6,0,0,0,14.35,9.061Z" fill="#fff"/></g><g transform="translate(15.577)"><path d="M.436,0,.143,0C.1,0,.048,0,0,0Z" transform="translate(2.159 22.348)" fill="#fff"/><path d="M2.385,0H1.692C.785,0,0,.55,0,1.223v19.89c0,.674.772,1.228,1.68,1.228l.736.007A1.433,1.433,0,0,0,4,21.114V1.222C4,.548,3.292,0,2.385,0Z" fill="#fff"/></g></g></svg>