<svg xmlns="http://www.w3.org/2000/svg" width="17.5" height="20" viewBox="0 0 17.5 20"><g transform="translate(17.5 20) rotate(180)"><path d="M12.5,8.133,2.532.481A2.058,2.058,0,0,0,1.332,0C.531,0,0,.75,0,1.956V18.045a2.587,2.587,0,0,0,.381,1.424A1.163,1.163,0,0,0,1.364,20a2.016,2.016,0,0,0,1.183-.481l9.961-7.652A2.35,2.35,0,0,0,13.5,10,2.355,2.355,0,0,0,12.5,8.133Z" fill="#d63346"/><g transform="translate(14.5 0.929)"><path d="M.436,0,.143,0C.1,0,.048,0,0,0Z" transform="translate(1.553 18.943)" fill="#d63346"/><path d="M1.788,0H1.269A1.184,1.184,0,0,0,0,1.037V17.9a1.178,1.178,0,0,0,1.26,1.041l.552.006A1.118,1.118,0,0,0,3,17.9V1.036A1.128,1.128,0,0,0,1.788,0Z" fill="#d63346"/></g></g></svg>