<svg xmlns="http://www.w3.org/2000/svg" xmlns:xlink="http://www.w3.org/1999/xlink" width="25" height="25" viewBox="0 0 25 25"><defs><clipPath id="a"><circle cx="12.5" cy="12.5" r="12.5" fill="#f34e5f"/></clipPath></defs><g clip-path="url(#a)"><g transform="translate(0.519 1.041)"><path d="M16.678,4.167h-5.83l1.347-1.347a1.042,1.042,0,0,0-1.473-1.473L7.6,4.471c-.024.024-.047.05-.069.076s-.018.025-.028.037-.023.029-.033.045-.019.03-.028.045-.017.028-.025.042-.015.031-.023.047-.015.03-.021.045-.011.031-.017.047-.012.033-.017.05-.008.031-.012.047-.009.034-.013.052-.006.037-.008.055-.005.03-.007.046c0,.034-.005.068-.005.1h0q0,.051.005.1c0,.016,0,.031.007.046s0,.037.008.055.008.035.013.052.007.031.012.047.011.033.017.05.011.031.017.046.014.03.021.045.014.032.023.047.017.028.025.042.018.031.028.045.022.03.033.045.018.025.028.037.045.052.069.076L10.722,9.07A1.042,1.042,0,1,0,12.195,7.6L10.848,6.25h5.818a6.245,6.245,0,0,1,6.25,6.25,5.653,5.653,0,0,1-1.666,4.006,1.042,1.042,0,1,0,1.474,1.473A7.735,7.735,0,0,0,25,12.5,8.328,8.328,0,0,0,16.678,4.167Z" transform="translate(0 -1.041)" fill="#f34e5f"/><path d="M17.5,20.415c.011-.015.023-.029.033-.045s.019-.03.028-.045.017-.028.025-.042.015-.031.023-.047.015-.03.021-.045.012-.031.017-.047.012-.033.017-.049.008-.032.012-.047.009-.034.013-.052.006-.037.008-.055.005-.03.007-.046a1.048,1.048,0,0,0,0-.206c0-.015,0-.03-.007-.046s0-.037-.008-.055-.008-.034-.013-.052-.007-.032-.012-.047-.011-.033-.017-.05-.011-.031-.017-.047-.014-.03-.021-.045-.015-.032-.023-.047-.016-.028-.025-.042-.018-.031-.028-.046-.022-.03-.033-.045-.018-.025-.028-.037-.044-.051-.068-.075h0L14.278,15.93A1.042,1.042,0,1,0,12.805,17.4l1.347,1.347H8.334a6.245,6.245,0,0,1-6.25-6.25A5.653,5.653,0,0,1,3.75,8.494,1.042,1.042,0,0,0,2.276,7.022,7.735,7.735,0,0,0,0,12.5a8.328,8.328,0,0,0,8.322,8.334h5.83l-1.347,1.347a1.042,1.042,0,0,0,1.473,1.473L17.4,20.529h0c.024-.024.047-.049.068-.076S17.491,20.427,17.5,20.415Z" transform="translate(0 -1.041)" fill="#f34e5f"/></g></g></svg>