<svg xmlns="http://www.w3.org/2000/svg" width="23" height="23" viewBox="0 0 23 23"><path d="M14.375,11.5A2.875,2.875,0,1,1,11.5,8.625,2.875,2.875,0,0,1,14.375,11.5Z" fill="none" stroke="#f34e5f" stroke-linecap="round" stroke-linejoin="round" stroke-width="1.917"/><path d="M18.592,14.375a1.581,1.581,0,0,0,.316,1.744l.058.058a1.918,1.918,0,1,1-2.712,2.712l-.058-.057a1.594,1.594,0,0,0-2.7,1.131v.163a1.917,1.917,0,0,1-3.833,0v-.086a1.581,1.581,0,0,0-1.035-1.447,1.581,1.581,0,0,0-1.744.316l-.057.058a1.918,1.918,0,1,1-2.712-2.712l.057-.058a1.594,1.594,0,0,0-1.131-2.7H2.875a1.917,1.917,0,0,1,0-3.833h.086A1.581,1.581,0,0,0,4.408,8.625a1.581,1.581,0,0,0-.316-1.744l-.057-.057A1.918,1.918,0,1,1,6.747,4.111l.057.057a1.581,1.581,0,0,0,1.744.316h.077a1.581,1.581,0,0,0,.958-1.447V2.875a1.917,1.917,0,0,1,3.833,0v.086a1.594,1.594,0,0,0,2.7,1.131l.058-.058a1.918,1.918,0,1,1,2.712,2.712l-.057.057a1.581,1.581,0,0,0-.316,1.744v.077a1.581,1.581,0,0,0,1.447.958h.163a1.917,1.917,0,0,1,0,3.833h-.086a1.581,1.581,0,0,0-1.447.958Z" fill="none" stroke="#f34e5f" stroke-linecap="round" stroke-linejoin="round" stroke-width="1.917"/></svg>