<svg xmlns="http://www.w3.org/2000/svg" xmlns:xlink="http://www.w3.org/1999/xlink" width="25" height="25" viewBox="0 0 25 25">
  <defs>
    <clipPath id="clip-path">
      <circle id="Ellipse_16" data-name="Ellipse 16" cx="12.5" cy="12.5" r="12.5" fill="#fff"/>
    </clipPath>
  </defs>
  <g id="Mask_Group_5" data-name="Mask Group 5" clip-path="url(#clip-path)">
    <g id="random" transform="translate(0 1.563)">
      <g id="Group_18" data-name="Group 18" transform="translate(0 3.124)">
        <g id="Group_17" data-name="Group 17">
          <path id="Path_18" data-name="Path 18" d="M24.719,18.149l-4.687-3.906a.781.781,0,0,0-1.281.6v2.344H17.442a3.11,3.11,0,0,1-2.65-1.469L9.733,7.624a6.212,6.212,0,0,0-5.3-2.938H0V7.812H4.433a3.11,3.11,0,0,1,2.65,1.469l5.059,8.094a6.216,6.216,0,0,0,5.3,2.938H18.75v2.344a.782.782,0,0,0,.45.708.793.793,0,0,0,.331.073.772.772,0,0,0,.5-.181l4.688-3.906a.781.781,0,0,0,0-1.2Z" transform="translate(0 -4.687)" fill="#fff"/>
        </g>
      </g>
      <g id="Group_20" data-name="Group 20" transform="translate(11.859)">
        <g id="Group_19" data-name="Group 19">
          <path id="Path_19" data-name="Path 19" d="M24.719,5.649,20.031,1.743a.782.782,0,0,0-1.281.6V4.687H17.442a6.212,6.212,0,0,0-5.3,2.938l-.283.453L13.7,11.026l1.091-1.745a3.11,3.11,0,0,1,2.65-1.469H18.75v2.344a.781.781,0,0,0,.45.708.793.793,0,0,0,.331.073.781.781,0,0,0,.5-.181l4.688-3.906a.781.781,0,0,0,0-1.2Z" transform="translate(-11.859 -1.563)" fill="#fff"/>
        </g>
      </g>
      <g id="Group_22" data-name="Group 22" transform="translate(0 12.41)">
        <g id="Group_21" data-name="Group 21">
          <path id="Path_20" data-name="Path 20" d="M8.173,13.973,7.084,15.718a3.112,3.112,0,0,1-2.652,1.469H0v3.125H4.433a6.216,6.216,0,0,0,5.3-2.937l.283-.453Z" transform="translate(0 -13.973)" fill="#fff"/>
        </g>
      </g>
    </g>
  </g>
</svg>
