<svg xmlns="http://www.w3.org/2000/svg" width="21.38" height="14.966" viewBox="0 0 21.38 14.966">
  <path id="Icon_awesome-user-friends" data-name="Icon awesome-user-friends" d="M6.414,9.045A3.741,3.741,0,1,0,2.672,5.3,3.74,3.74,0,0,0,6.414,9.045ZM8.98,10.115H8.7a5.166,5.166,0,0,1-4.577,0H3.848A3.849,3.849,0,0,0,0,13.963v.962a1.6,1.6,0,0,0,1.6,1.6h9.621a1.6,1.6,0,0,0,1.6-1.6v-.962A3.849,3.849,0,0,0,8.98,10.115Zm7.055-1.069a3.207,3.207,0,1,0-3.207-3.207A3.208,3.208,0,0,0,16.035,9.045Zm1.6,1.069h-.127a4.213,4.213,0,0,1-2.953,0h-.127a3.71,3.71,0,0,0-1.861.514A4.889,4.889,0,0,1,13.9,13.963v1.283c0,.073-.017.144-.02.214h5.9a1.6,1.6,0,0,0,1.6-1.6A3.74,3.74,0,0,0,17.639,10.115Z" transform="translate(0 -1.563)" fill="#fff"/>
</svg>
